<svg width="18" height="20" viewBox="0 0 18 20" fill="none" xmlns="http://www.w3.org/2000/svg">
<path d="M6.65227 2.56614C6.85562 1.65106 7.66724 1 8.60464 1H9.39595C10.3334 1 11.145 1.65106 11.3483 2.56614L11.5513 3.47935C12.2124 3.73819 12.8245 4.09467 13.37 4.53105L14.2642 4.24961C15.1583 3.96818 16.128 4.34554 16.5967 5.15735L16.9923 5.84264C17.461 6.65445 17.303 7.68287 16.6122 8.31652L15.922 8.94961C15.9736 9.29223 16.0003 9.643 16.0003 10C16.0003 10.357 15.9736 10.7078 15.922 11.0504L16.6122 11.6835C17.303 12.3171 17.4611 13.3455 16.9924 14.1574L16.5967 14.8426C16.128 15.6545 15.1583 16.0318 14.2642 15.7504L13.37 15.4689C12.8245 15.9053 12.2124 16.2618 11.5513 16.5206L11.3483 17.4339C11.145 18.3489 10.3334 19 9.39595 19H8.60464C7.66724 19 6.85562 18.3489 6.65227 17.4339L6.44933 16.5206C5.7882 16.2618 5.17604 15.9053 4.63058 15.4689L3.73639 15.7504C2.84223 16.0318 1.87258 15.6545 1.40388 14.8426L1.00823 14.1573C0.539528 13.3455 0.697552 12.3171 1.38836 11.6835L2.07858 11.0504C2.02702 10.7077 2.0003 10.357 2.0003 10C2.0003 9.643 2.02702 9.29225 2.07858 8.94962L1.38837 8.31652C0.697566 7.68288 0.539542 6.65446 1.00824 5.84265L1.4039 5.15735C1.8726 4.34554 2.84225 3.96818 3.7364 4.24962L4.63059 4.53106C5.17604 4.09467 5.7882 3.73819 6.44933 3.47935L6.65227 2.56614Z" stroke="#888888" stroke-width="1.4" stroke-linecap="round" stroke-linejoin="round"/>
<path d="M10.0003 10C10.0003 10.5523 9.55256 11 9.00027 11C8.44799 11 8.00027 10.5523 8.00027 10C8.00027 9.44772 8.44799 9 9.00027 9C9.55256 9 10.0003 9.44772 10.0003 10Z" stroke="#888888" stroke-width="1.4" stroke-linecap="round" stroke-linejoin="round"/>
</svg>
