<svg width="20" height="18" viewBox="0 0 20 18" fill="none" xmlns="http://www.w3.org/2000/svg">
<path d="M18 8.62111V15C18 16.1046 17.1046 17 16 17H4C2.89543 17 2 16.1046 2 15V8.62111M5.5 6.75C5.5 7.99264 4.49264 9 3.25 9C2.09397 9 1.14157 8.12818 1.01442 7.00615C0.995239 6.83688 1.02176 6.66657 1.06477 6.50173L2.10996 2.49516C2.3397 1.6145 3.13506 1 4.04519 1H15.9548C16.8649 1 17.6603 1.6145 17.89 2.49516L18.9352 6.50173C18.9782 6.66657 19.0048 6.83688 18.9856 7.00615C18.8584 8.12818 17.906 9 16.75 9C15.5074 9 14.5 7.99264 14.5 6.75M5.5 6.75C5.5 7.99264 6.50736 9 7.75 9C8.99264 9 10 7.99264 10 6.75M5.5 6.75L6 1M10 6.75C10 7.99264 11.0074 9 12.25 9C13.4926 9 14.5 7.99264 14.5 6.75M10 6.75V1M14.5 6.75L14 1" stroke="#888888" stroke-width="1.4" stroke-linecap="round" stroke-linejoin="round"/>
</svg>
